<svg width="38" height="38" viewBox="0 0 38 38" fill="none" xmlns="http://www.w3.org/2000/svg">
<path d="M36.4168 30.0833C36.4168 30.9232 36.0832 31.7286 35.4893 32.3225C34.8955 32.9164 34.09 33.25 33.2502 33.25H4.75016C3.91031 33.25 3.10486 32.9164 2.51099 32.3225C1.91713 31.7286 1.5835 30.9232 1.5835 30.0833V12.6667C1.5835 11.8268 1.91713 11.0214 2.51099 10.4275C3.10486 9.83363 3.91031 9.5 4.75016 9.5H11.0835L14.2502 4.75H23.7502L26.9168 9.5H33.2502C34.09 9.5 34.8955 9.83363 35.4893 10.4275C36.0832 11.0214 36.4168 11.8268 36.4168 12.6667V30.0833Z" fill="#FAA852" fill-opacity="0.7"/>
<path d="M18.9998 26.9167C22.4976 26.9167 25.3332 24.0811 25.3332 20.5833C25.3332 17.0855 22.4976 14.25 18.9998 14.25C15.502 14.25 12.6665 17.0855 12.6665 20.5833C12.6665 24.0811 15.502 26.9167 18.9998 26.9167Z" fill="white"/>
</svg>
