<svg width="202" height="167" viewBox="0 0 202 167" fill="none" xmlns="http://www.w3.org/2000/svg">
<rect width="142" height="147" transform="matrix(1 0 0 -1 10 157)" fill="#BFBFBF"/>
<line y1="-0.9" x2="81" y2="-0.9" transform="matrix(-1 0 0 1 81 167)" stroke="#BFBFBF" stroke-width="1.8"/>
<line y1="-0.9" x2="83" y2="-0.9" transform="matrix(-5.37281e-10 -1 -1 5.37281e-10 160 84)" stroke="#BFBFBF" stroke-width="1.8"/>
<line y1="-0.9" x2="10" y2="-0.9" transform="matrix(-3.73758e-09 -1 -1 3.73758e-09 80 167)" stroke="#BFBFBF" stroke-width="1.8"/>
<line y1="-0.9" x2="160" y2="-0.9" transform="matrix(1 0 0 -1 0 0)" stroke="#BFBFBF" stroke-width="1.8"/>
<path d="M202 83L193 88.1962L193 77.8038L202 83ZM193.9 83.9L160 83.9L160 82.1L193.9 82.1L193.9 83.9Z" fill="#BFBFBF"/>
<line y1="-0.9" x2="164" y2="-0.9" transform="matrix(0 -1 -1 0 0 165)" stroke="#BFBFBF" stroke-width="1.8"/>
</svg>
