<svg width="202" height="168" viewBox="0 0 202 168" fill="none" xmlns="http://www.w3.org/2000/svg">
<rect width="142" height="147" transform="matrix(1 0 0 -1 10 157.474)" fill="#EBE1BE"/>
<line y1="-0.9" x2="81" y2="-0.9" transform="matrix(-1 0 0 1 81 167.474)" stroke="#EBE1BE" stroke-width="1.8"/>
<line y1="-0.9" x2="83" y2="-0.9" transform="matrix(-5.37281e-10 -1 -1 5.37281e-10 160 84.4741)" stroke="#EBE1BE" stroke-width="1.8"/>
<line y1="-0.9" x2="10" y2="-0.9" transform="matrix(-3.73758e-09 -1 -1 3.73758e-09 80 167.474)" stroke="#EBE1BE" stroke-width="1.8"/>
<line y1="-0.9" x2="160" y2="-0.9" transform="matrix(1 0 0 -1 0 0.474121)" stroke="#EBE1BE" stroke-width="1.8"/>
<path d="M202 83.4741L193 88.6703L193 78.278L202 83.4741ZM193.9 84.3741L160 84.3741L160 82.5741L193.9 82.5741L193.9 84.3741Z" fill="#EBE1BE"/>
<line y1="-0.9" x2="164" y2="-0.9" transform="matrix(0 -1 -1 0 0 165.474)" stroke="#EBE1BE" stroke-width="1.8"/>
</svg>
