<svg width="96" height="24" viewBox="0 0 96 24" fill="none" xmlns="http://www.w3.org/2000/svg">
<path d="M19.9999 10.9996H7.82988L13.4199 5.4096L11.9999 3.9996L3.99988 11.9996L11.9999 19.9996L13.4099 18.5896L7.82988 12.9996H19.9999V10.9996Z" fill="#79747E"/>
<path d="M47.9999 3.9996L46.5899 5.4096L52.1699 10.9996H39.9999V12.9996H52.1699L46.5899 18.5896L47.9999 19.9996L55.9999 11.9996L47.9999 3.9996Z" fill="#79747E"/>
<path d="M89.6499 6.3496C88.1999 4.8996 86.2099 3.9996 83.9999 3.9996C79.5799 3.9996 76.0099 7.5796 76.0099 11.9996C76.0099 16.4196 79.5799 19.9996 83.9999 19.9996C87.7299 19.9996 90.8399 17.4496 91.7299 13.9996H89.6499C88.8299 16.3296 86.6099 17.9996 83.9999 17.9996C80.6899 17.9996 77.9999 15.3096 77.9999 11.9996C77.9999 8.6896 80.6899 5.9996 83.9999 5.9996C85.6599 5.9996 87.1399 6.6896 88.2199 7.7796L84.9999 10.9996H91.9999V3.9996L89.6499 6.3496Z" fill="#79747E"/>
</svg>
