<svg width="80" height="80" viewBox="0 0 80 80" fill="none" xmlns="http://www.w3.org/2000/svg">
<path d="M60.5226 56.2731L56.566 60.1861C53.6496 63.0481 49.866 66.7281 45.213 71.2264C42.3056 74.0377 37.693 74.0374 34.786 71.2257L23.1488 59.9061C21.6863 58.4701 20.4621 57.2591 19.4759 56.2731C8.14124 44.9384 8.14124 26.5611 19.4759 15.2264C30.8106 3.89167 49.188 3.89167 60.5226 15.2264C71.8573 26.5611 71.8573 44.9384 60.5226 56.2731ZM48.3333 36.6654C48.3333 32.0626 44.602 28.3313 39.9993 28.3313C35.3966 28.3313 31.6652 32.0626 31.6652 36.6654C31.6652 41.2681 35.3966 44.9994 39.9993 44.9994C44.602 44.9994 48.3333 41.2681 48.3333 36.6654Z" fill="#8D5B27"/>
</svg>
