<svg width="80" height="80" viewBox="0 0 80 80" fill="none" xmlns="http://www.w3.org/2000/svg">
<path d="M60.5227 56.2731L56.566 60.1861C53.6497 63.0481 49.866 66.7281 45.213 71.2264C42.3057 74.0377 37.693 74.0374 34.786 71.2257L23.1489 59.9061C21.6864 58.4701 20.4621 57.2591 19.476 56.2731C8.1413 44.9384 8.1413 26.5611 19.476 15.2264C30.8107 3.89167 49.188 3.89167 60.5227 15.2264C71.8574 26.5611 71.8574 44.9384 60.5227 56.2731ZM48.3334 36.6654C48.3334 32.0626 44.602 28.3313 39.9994 28.3313C35.3967 28.3313 31.6653 32.0626 31.6653 36.6654C31.6653 41.2681 35.3967 44.9994 39.9994 44.9994C44.602 44.9994 48.3334 41.2681 48.3334 36.6654Z" fill="#FFB568"/>
</svg>
