<svg width="16" height="16" viewBox="0 0 16 16" fill="none" xmlns="http://www.w3.org/2000/svg">
<g clip-path="url(#clip0_16_977)">
<path opacity="0.65" d="M11.5201 5.44063H10.8801V4.16063C10.8801 2.39423 9.44646 0.960632 7.68006 0.960632C5.91366 0.960632 4.48006 2.39423 4.48006 4.16063V5.44063H3.84006C3.13606 5.44063 2.56006 6.01663 2.56006 6.72063V13.1206C2.56006 13.8246 3.13606 14.4006 3.84006 14.4006H11.5201C12.2241 14.4006 12.8001 13.8246 12.8001 13.1206V6.72063C12.8001 6.01663 12.2241 5.44063 11.5201 5.44063ZM7.68006 11.2006C6.97606 11.2006 6.40006 10.6246 6.40006 9.92063C6.40006 9.21663 6.97606 8.64063 7.68006 8.64063C8.38406 8.64063 8.96006 9.21663 8.96006 9.92063C8.96006 10.6246 8.38406 11.2006 7.68006 11.2006ZM9.66406 5.44063H5.69606V4.16063C5.69606 3.06623 6.58566 2.17663 7.68006 2.17663C8.77446 2.17663 9.66406 3.06623 9.66406 4.16063V5.44063Z" fill="#49454F"/>
</g>
<defs>
<clipPath id="clip0_16_977">
<rect width="15.36" height="15.36" fill="white" transform="translate(0 0.320007)"/>
</clipPath>
</defs>
</svg>
