<svg width="77" height="77" viewBox="0 0 77 77" fill="none" xmlns="http://www.w3.org/2000/svg">
<path d="M67.375 32.0832C67.375 54.5416 38.5 73.7916 38.5 73.7916C38.5 73.7916 9.625 54.5416 9.625 32.0832C9.625 24.4251 12.6672 17.0807 18.0823 11.6655C23.4974 6.25043 30.8419 3.20825 38.5 3.20825C46.1581 3.20825 53.5026 6.25043 58.9177 11.6655C64.3328 17.0807 67.375 24.4251 67.375 32.0832Z" fill="#FAA852" fill-opacity="0.7"/>
<path d="M38.5 41.7083C43.8157 41.7083 48.125 37.399 48.125 32.0833C48.125 26.7675 43.8157 22.4583 38.5 22.4583C33.1843 22.4583 28.875 26.7675 28.875 32.0833C28.875 37.399 33.1843 41.7083 38.5 41.7083Z" fill="white"/>
</svg>
