<svg width="85" height="84" viewBox="0 0 85 84" fill="none" xmlns="http://www.w3.org/2000/svg">
<path d="M73.8105 35C73.8105 59.5 42.3105 80.5 42.3105 80.5C42.3105 80.5 10.8105 59.5 10.8105 35C10.8105 26.6457 14.1293 18.6335 20.0367 12.7261C25.9441 6.81874 33.9562 3.5 42.3105 3.5C50.6649 3.5 58.677 6.81874 64.5844 12.7261C70.4918 18.6335 73.8105 26.6457 73.8105 35Z" stroke="#4D3D3D" stroke-opacity="0.8" stroke-width="4" stroke-linecap="round" stroke-linejoin="round"/>
<path d="M42.3105 45.5C48.1095 45.5 52.8105 40.799 52.8105 35C52.8105 29.201 48.1095 24.5 42.3105 24.5C36.5116 24.5 31.8105 29.201 31.8105 35C31.8105 40.799 36.5116 45.5 42.3105 45.5Z" stroke="#4D3D3D" stroke-opacity="0.8" stroke-width="4" stroke-linecap="round" stroke-linejoin="round"/>
</svg>
