<svg width="84" height="84" viewBox="0 0 84 84" fill="none" xmlns="http://www.w3.org/2000/svg">
<path d="M73.5 35C73.5 59.5 42 80.5 42 80.5C42 80.5 10.5 59.5 10.5 35C10.5 26.6457 13.8187 18.6335 19.7261 12.7261C25.6335 6.81874 33.6457 3.5 42 3.5C50.3543 3.5 58.3665 6.81874 64.2739 12.7261C70.1813 18.6335 73.5 26.6457 73.5 35Z" stroke="#4D3D3D" stroke-opacity="0.8" stroke-width="4" stroke-linecap="round" stroke-linejoin="round"/>
<path d="M42 45.5C47.799 45.5 52.5 40.799 52.5 35C52.5 29.201 47.799 24.5 42 24.5C36.201 24.5 31.5 29.201 31.5 35C31.5 40.799 36.201 45.5 42 45.5Z" stroke="#4D3D3D" stroke-opacity="0.8" stroke-width="4" stroke-linecap="round" stroke-linejoin="round"/>
</svg>
