<svg width="24" height="24" viewBox="0 0 24 24" fill="none" xmlns="http://www.w3.org/2000/svg">
<path d="M11.9999 7.9996C13.0999 7.9996 13.9999 7.0996 13.9999 5.9996C13.9999 4.8996 13.0999 3.9996 11.9999 3.9996C10.8999 3.9996 9.99991 4.8996 9.99991 5.9996C9.99991 7.0996 10.8999 7.9996 11.9999 7.9996ZM11.9999 9.9996C10.8999 9.9996 9.99991 10.8996 9.99991 11.9996C9.99991 13.0996 10.8999 13.9996 11.9999 13.9996C13.0999 13.9996 13.9999 13.0996 13.9999 11.9996C13.9999 10.8996 13.0999 9.9996 11.9999 9.9996ZM11.9999 15.9996C10.8999 15.9996 9.99991 16.8996 9.99991 17.9996C9.99991 19.0996 10.8999 19.9996 11.9999 19.9996C13.0999 19.9996 13.9999 19.0996 13.9999 17.9996C13.9999 16.8996 13.0999 15.9996 11.9999 15.9996Z" fill="#79747E"/>
</svg>
