<svg width="80" height="80" viewBox="0 0 80 80" fill="none" xmlns="http://www.w3.org/2000/svg">
<path d="M73.3333 56.3999V66.3999C73.337 67.3283 73.1469 68.2471 72.775 69.0977C72.4031 69.9483 71.8576 70.7119 71.1735 71.3395C70.4895 71.9671 69.6819 72.4449 68.8024 72.7423C67.923 73.0397 66.9912 73.1501 66.0666 73.0666C55.8094 71.952 45.9566 68.4471 37.2999 62.8333C29.246 57.7155 22.4177 50.8872 17.2999 42.8333C11.6665 34.1373 8.16075 24.2366 7.06661 13.9332C6.98331 13.0115 7.09286 12.0825 7.38827 11.2053C7.68369 10.3282 8.15851 9.52221 8.78249 8.83865C9.40648 8.15509 10.166 7.60895 11.0126 7.23499C11.8592 6.86103 12.7744 6.66745 13.6999 6.66658H23.6999C25.3176 6.65066 26.8859 7.22351 28.1125 8.27836C29.339 9.33321 30.1402 10.7981 30.3666 12.3999C30.7887 15.6001 31.5714 18.7423 32.6999 21.7666C33.1484 22.9597 33.2455 24.2563 32.9796 25.5028C32.7138 26.7494 32.0961 27.8936 31.1999 28.7999L26.9666 33.0332C31.7118 41.3784 38.6215 48.2881 46.9666 53.0332L51.1999 48.7999C52.1062 47.9037 53.2505 47.2861 54.497 47.0202C55.7436 46.7544 57.0402 46.8514 58.2333 47.2999C61.2575 48.4284 64.3997 49.2112 67.5999 49.6333C69.2192 49.8617 70.6979 50.6773 71.7551 51.9249C72.8122 53.1725 73.3738 54.7652 73.3333 56.3999Z" fill="#FAA852" fill-opacity="0.7"/>
</svg>
