<svg width="40" height="40" viewBox="0 0 40 40" fill="none" xmlns="http://www.w3.org/2000/svg">
<path d="M13.5 23.75C16.5724 23.75 19.147 26.4145 19.8252 29.9957L38.5 30C39.3284 30 40 30.8395 40 31.875C40 32.8242 39.4356 33.6087 38.7036 33.733L38.5 33.75L19.8258 33.7518C19.1482 37.3343 16.5732 40 13.5 40C10.4269 40 7.85188 37.3343 7.17424 33.7518L1.5 33.75C0.67158 33.75 0 32.9105 0 31.875C0 30.9258 0.5643 30.1412 1.29646 30.017L1.5 30L7.17424 29.9982C7.85188 26.4157 10.4269 23.75 13.5 23.75ZM13.5 27.5C11.9717 27.5 10.6722 28.7245 10.1951 30.4312L10.1539 30.588L10.0769 30.9585C10.0265 31.254 10 31.5605 10 31.875C10 32.262 10.0402 32.6375 10.1157 32.9948L10.1953 33.3197L10.2467 33.4915C10.7611 35.1077 12.0238 36.25 13.5 36.25C15.0275 36.25 16.3264 35.0268 16.8042 33.3213L16.8844 32.9945L16.8502 33.1452C16.9476 32.7432 17 32.3167 17 31.875C17 31.613 16.9816 31.3562 16.9462 31.107L16.8862 30.7642L16.8462 30.5882L16.7526 30.256C16.2376 28.6412 14.9754 27.5 13.5 27.5ZM26.5 0C29.5732 0 32.1482 2.6658 32.8258 6.24835L38.5 6.25C39.3284 6.25 40 7.08948 40 8.125C40 9.07425 39.4356 9.85872 38.7036 9.98287L38.5 10L32.8258 10.0016C32.1482 13.5842 29.5732 16.25 26.5 16.25C23.4268 16.25 20.8518 13.5842 20.1742 10.0016L1.5 10C0.67158 10 0 9.16053 0 8.125C0 7.17575 0.5643 6.39127 1.29646 6.26712L1.5 6.25L20.1748 6.24582C20.853 2.66455 23.4276 0 26.5 0ZM26.5 3.75C24.9718 3.75 23.6722 4.9744 23.195 6.68125L23.154 6.83787L23.077 7.20842C23.0266 7.504 23 7.81063 23 8.125C23 8.51208 23.0402 8.88743 23.1158 9.24485L23.1954 9.56967L23.2468 9.7416C23.761 11.3577 25.0238 12.5 26.5 12.5C28.0276 12.5 29.3264 11.2768 29.8042 9.5713L29.8844 9.24452L29.8502 9.3952C29.9476 8.99322 30 8.56675 30 8.125C30 7.86295 29.9816 7.60625 29.9462 7.35687L29.8862 7.01413L29.8462 6.83822L29.7526 6.5059C29.2376 4.89117 27.9754 3.75 26.5 3.75Z" fill="#FAA852"/>
</svg>
