<svg width="50" height="60" viewBox="0 0 50 60" fill="none" xmlns="http://www.w3.org/2000/svg">
<path d="M42.6777 44.6313L39.2696 48.1561C36.7577 50.7341 33.4986 54.0489 29.4908 58.1009C26.9866 60.6333 23.0135 60.633 20.5095 58.1003L10.486 47.9038C9.22621 46.6103 8.17172 45.5195 7.32232 44.6313C-2.44077 34.4213 -2.44077 17.8675 7.32232 7.65751C17.0854 -2.5525 32.9146 -2.5525 42.6777 7.65751C52.4408 17.8675 52.4408 34.4213 42.6777 44.6313ZM32.1785 26.9692C32.1785 22.8231 28.9645 19.4621 25 19.4621C21.0355 19.4621 17.8215 22.8231 17.8215 26.9692C17.8215 31.1152 21.0355 34.4763 25 34.4763C28.9645 34.4763 32.1785 31.1152 32.1785 26.9692Z" fill="#FF3131"/>
</svg>
